<svg id="Capa_1" data-name="Capa 1" xmlns="http://www.w3.org/2000/svg" viewBox="0 0 35 16.57"><defs><style>.cls-1{fill:#2f2f2f;}</style></defs><title>contact-head-iconmail</title><path class="cls-1" d="M30.14,16.79H10.58a1.59,1.59,0,0,1-1.26-.58A1.55,1.55,0,0,1,9,14.86L11.67,2A2.31,2.31,0,0,1,13.84.21H33.39a1.6,1.6,0,0,1,1.27.58A1.55,1.55,0,0,1,35,2.14L32.31,15A2.32,2.32,0,0,1,30.14,16.79ZM13.84,1A1.55,1.55,0,0,0,12.4,2.14L9.75,15a.81.81,0,0,0,.83,1H30.14a1.55,1.55,0,0,0,1.43-1.18h0L34.23,2a.87.87,0,0,0-.16-.73A.83.83,0,0,0,33.39,1Z" transform="translate(0 -0.21)"/><path class="cls-1" d="M21.77,10.39a2.08,2.08,0,0,1-1.52-.63L12.82,1.93a.38.38,0,0,1,.55-.51L20.8,9.25a1.38,1.38,0,0,0,1.75.15l10.92-8a.38.38,0,0,1,.53.08.39.39,0,0,1-.08.53L23,10A2,2,0,0,1,21.77,10.39Z" transform="translate(0 -0.21)"/><path class="cls-1" d="M9.08,3H4.13a.38.38,0,0,1,0-.76h5a.38.38,0,1,1,0,.76Z" transform="translate(0 -0.21)"/><path class="cls-1" d="M8.08,8H.38A.38.38,0,0,1,0,7.66a.37.37,0,0,1,.38-.37h7.7a.36.36,0,0,1,.37.37A.37.37,0,0,1,8.08,8Z" transform="translate(0 -0.21)"/><path class="cls-1" d="M6.83,12.55H3.07a.38.38,0,0,1-.38-.38.37.37,0,0,1,.38-.37H6.83a.37.37,0,0,1,.37.37A.38.38,0,0,1,6.83,12.55Z" transform="translate(0 -0.21)"/></svg>