<svg id="Capa_1" data-name="Capa 1" xmlns="http://www.w3.org/2000/svg" viewBox="0 0 16.24 16.24"><defs><style>.cls-1{fill:#a2a2a2;}</style></defs><title>kickill-cancel</title><path class="cls-1" d="M9,.88A8.12,8.12,0,1,0,17.12,9,8.13,8.13,0,0,0,9,.88ZM9,16.49A7.49,7.49,0,1,1,16.49,9,7.5,7.5,0,0,1,9,16.49Z" transform="translate(-0.88 -0.88)"/><path class="cls-1" d="M12,6a.31.31,0,0,0-.44,0L9,8.56,6.41,6A.31.31,0,1,0,6,6.41L8.56,9,6,11.59A.31.31,0,0,0,6,12a.31.31,0,0,0,.44,0L9,9.44,11.59,12A.31.31,0,0,0,12,12a.31.31,0,0,0,0-.44L9.44,9,12,6.41A.31.31,0,0,0,12,6Z" transform="translate(-0.88 -0.88)"/></svg>