<?xml version="1.0" encoding="utf-8"?>
<!-- Generator: Adobe Illustrator 23.0.1, SVG Export Plug-In . SVG Version: 6.00 Build 0)  -->
<svg version="1.1" id="Capa_1" xmlns="http://www.w3.org/2000/svg" xmlns:xlink="http://www.w3.org/1999/xlink" x="0px" y="0px"
	 viewBox="0 0 14 13" style="enable-background:new 0 0 14 13;" xml:space="preserve">
<style type="text/css">
	.st0{fill:#FFFFFF;}
</style>
<g>
	<g>
		<path class="st0" d="M13.27,6.35c-0.21,0-0.38,0.17-0.38,0.38v3.46c0,0.94-0.77,1.71-1.71,1.71H2.82c-0.94,0-1.71-0.77-1.71-1.71
			V6.67c0-0.21-0.17-0.38-0.38-0.38S0.35,6.46,0.35,6.67v3.52c0,1.36,1.11,2.47,2.47,2.47h8.36c1.36,0,2.47-1.11,2.47-2.47V6.73
			C13.65,6.52,13.48,6.35,13.27,6.35z"/>
		<path class="st0" d="M4.85,3.41l1.77-1.77v7.73c0,0.21,0.17,0.38,0.38,0.38s0.38-0.17,0.38-0.38V1.64l1.77,1.77
			c0.07,0.07,0.17,0.11,0.27,0.11c0.1,0,0.19-0.04,0.27-0.11c0.15-0.15,0.15-0.39,0-0.54L7.27,0.45C7.2,0.38,7.1,0.34,7,0.34
			c-0.1,0-0.2,0.04-0.27,0.11L4.31,2.87c-0.15,0.15-0.15,0.39,0,0.54C4.46,3.56,4.7,3.56,4.85,3.41z"/>
	</g>
</g>
</svg>
