<?xml version="1.0" encoding="utf-8"?>
<!-- Generator: Adobe Illustrator 23.0.1, SVG Export Plug-In . SVG Version: 6.00 Build 0)  -->
<svg version="1.1" id="Layer_1" xmlns="http://www.w3.org/2000/svg" xmlns:xlink="http://www.w3.org/1999/xlink" x="0px" y="0px"
	 viewBox="0 0 29 18" style="enable-background:new 0 0 29 18;" xml:space="preserve">
<style type="text/css">
	.st0{fill:#FFFFFF;}
</style>
<g>
	<g>
		<path class="st0" d="M26.04,7.71l-0.7-2.78c0.19-0.04,0.33-0.21,0.33-0.41V4.07c0-0.97-0.79-1.77-1.77-1.77h-3.17V1.38
			c0-0.48-0.39-0.87-0.87-0.87H3.74c-0.48,0-0.87,0.39-0.87,0.87V9c0,0.23,0.19,0.42,0.42,0.42c0.23,0,0.42-0.19,0.42-0.42V1.38
			c0-0.02,0.01-0.03,0.03-0.03h16.14c0.02,0,0.03,0.01,0.03,0.03V9c0,0.23,0.19,0.42,0.42,0.42c0.23,0,0.42-0.19,0.42-0.42V8.52
			h4.96c0,0,0,0,0,0c0,0,0,0,0,0c0.61,0,1.13,0.4,1.31,0.95h-1.31c-0.23,0-0.42,0.19-0.42,0.42v0.9c0,0.73,0.59,1.32,1.32,1.32h0.48
			v1.85h-1.1c-0.36-1.04-1.35-1.79-2.52-1.79c-1.16,0-2.15,0.75-2.52,1.79h-0.2v-3.17c0-0.23-0.19-0.42-0.42-0.42
			c-0.23,0-0.42,0.19-0.42,0.42v3.17h-8.72c-0.36-1.04-1.35-1.79-2.52-1.79s-2.15,0.75-2.52,1.79H3.74c-0.02,0-0.03-0.01-0.03-0.03
			v-0.92h1.82c0.23,0,0.42-0.19,0.42-0.42c0-0.23-0.19-0.42-0.42-0.42H1.5c-0.23,0-0.42,0.19-0.42,0.42c0,0.23,0.19,0.42,0.42,0.42
			h1.37v0.92c0,0.48,0.39,0.87,0.87,0.87h2.27c0,0.01,0,0.02,0,0.03c0,1.47,1.19,2.66,2.66,2.66s2.66-1.19,2.66-2.66
			c0-0.01,0-0.02,0-0.03h9.47c0,0.01,0,0.02,0,0.03c0,1.47,1.19,2.66,2.66,2.66s2.66-1.19,2.66-2.66c0-0.01,0-0.02,0-0.03h1.37
			c0.23,0,0.42-0.19,0.42-0.42V9.9C27.92,8.79,27.1,7.87,26.04,7.71z M20.75,3.14h3.17c0.51,0,0.92,0.41,0.92,0.92V4.1h-4.09V3.14z
			 M20.75,7.68V4.94h3.73l0.69,2.75L20.75,7.68L20.75,7.68z M8.67,16.65c-1,0-1.82-0.82-1.82-1.82s0.82-1.82,1.82-1.82
			s1.82,0.82,1.82,1.82S9.68,16.65,8.67,16.65z M23.47,16.65c-1,0-1.82-0.82-1.82-1.82s0.82-1.82,1.82-1.82c1,0,1.82,0.82,1.82,1.82
			S24.47,16.65,23.47,16.65z M27.08,11.27H26.6c-0.26,0-0.48-0.21-0.48-0.48v-0.48h0.95L27.08,11.27L27.08,11.27z"/>
	</g>
</g>
<g>
	<g>
		<path class="st0" d="M8.67,13.96c-0.48,0-0.87,0.39-0.87,0.87s0.39,0.87,0.87,0.87c0.48,0,0.87-0.39,0.87-0.87
			C9.54,14.35,9.15,13.96,8.67,13.96z"/>
	</g>
</g>
<g>
	<g>
		<path class="st0" d="M23.47,13.96c-0.48,0-0.87,0.39-0.87,0.87s0.39,0.87,0.87,0.87s0.87-0.39,0.87-0.87S23.94,13.96,23.47,13.96z
			"/>
	</g>
</g>
<g>
	<g>
		<path class="st0" d="M18.53,12.16h-6.28c-0.23,0-0.42,0.19-0.42,0.42c0,0.23,0.19,0.42,0.42,0.42h6.28c0.23,0,0.42-0.19,0.42-0.42
			C18.95,12.35,18.77,12.16,18.53,12.16z"/>
	</g>
</g>
<g>
	<g>
		<path class="st0" d="M7.78,10.37H2.4c-0.23,0-0.42,0.19-0.42,0.42c0,0.23,0.19,0.42,0.42,0.42h5.38c0.23,0,0.42-0.19,0.42-0.42
			C8.2,10.56,8.01,10.37,7.78,10.37z"/>
	</g>
</g>
<g>
	<g>
		<path class="st0" d="M15.69,4.67c-0.16-0.16-0.43-0.16-0.59,0L11.36,8.4L9.42,6.46c-0.16-0.16-0.43-0.16-0.59,0
			c-0.16,0.16-0.16,0.43,0,0.59l2.24,2.24c0.08,0.08,0.19,0.12,0.3,0.12s0.22-0.04,0.3-0.12l4.03-4.03
			C15.86,5.1,15.86,4.83,15.69,4.67z"/>
	</g>
</g>
</svg>
