<?xml version="1.0" encoding="utf-8"?>
<!-- Generator: Adobe Illustrator 23.0.1, SVG Export Plug-In . SVG Version: 6.00 Build 0)  -->
<svg version="1.1" id="Layer_1" xmlns="http://www.w3.org/2000/svg" xmlns:xlink="http://www.w3.org/1999/xlink" x="0px" y="0px"
	 viewBox="0 0 30 30" style="enable-background:new 0 0 30 30;" xml:space="preserve">
<style type="text/css">
	.st0{fill:#FFFFFF;}
</style>
<g>
	<path class="st0" d="M11.93,1.08c-5.99,0-10.85,4.86-10.85,10.85s4.86,10.85,10.85,10.85c2.3,0,4.44-0.72,6.2-1.94l0,0l8.05,8.05
		c0.15,0.15,0.39,0.15,0.54,0l2.17-2.17c0.15-0.15,0.14-0.4,0-0.54l-8.05-8.05c1.22-1.76,1.94-3.9,1.94-6.2
		C22.79,5.94,17.93,1.08,11.93,1.08z M11.93,20.23c-4.58,0-8.3-3.72-8.3-8.3s3.72-8.3,8.3-8.3s8.3,3.72,8.3,8.3
		S16.52,20.23,11.93,20.23z"/>
</g>
</svg>
