<svg id="Layer_1" data-name="Layer 1" xmlns="http://www.w3.org/2000/svg" viewBox="0 0 37.99 38"><title>kickill-about-value</title><path d="M33.74,22.57l-.2.1a2.7,2.7,0,0,0-3.19-.8h0l-.46.25a3.49,3.49,0,0,0-4-.36l-2.48,1.35h-3.3A4.94,4.94,0,0,1,18,22.64l-.45-.22a7.82,7.82,0,0,0-8.11.79l0,0-1.1,1A3.88,3.88,0,0,1,6.9,25L6.27,23a.48.48,0,0,0-.47-.35H.5a.49.49,0,0,0-.49.5v.06L1.78,37.67a.49.49,0,0,0,.49.43h8a.49.49,0,0,0,.49-.49.32.32,0,0,0,0-.14L9.65,34,12.9,32a1.93,1.93,0,0,1,1.43-.18h0L21,33a8.58,8.58,0,0,0,5.3-.75l.06,0,11.45-7.86a.5.5,0,0,0,.14-.66A3.14,3.14,0,0,0,33.74,22.57Zm-2.94.18a1.69,1.69,0,0,1,1.84.41L28.3,25.5l-.25.14a3.69,3.69,0,0,0-.6-1.08Zm-4.45-.12h0a2.53,2.53,0,0,1,2.55,0l-2.2,1.19a3.8,3.8,0,0,0-1.42-.64ZM2.7,37.12,1.06,23.61H5.44L9.55,37.12ZM25.81,31.4a7.55,7.55,0,0,1-4.65.65l-6.61-1.22a3,3,0,0,0-2.14.29l0,0-3,1.92L7.18,26A4.69,4.69,0,0,0,9,25l1.08-1a6.81,6.81,0,0,1,7.07-.68l.45.22a5.69,5.69,0,0,0,2.5.57h4.4a2.78,2.78,0,0,1,2.73,2.26L24,26.22a19.17,19.17,0,0,0-3.47.16.49.49,0,0,0,.13,1,18.2,18.2,0,0,1,3.3-.15l3.75.17h0a.5.5,0,0,0,.5-.5c0-.08,0-.16,0-.24l.51-.27,5.45-2.93a2.14,2.14,0,0,1,2.59.41Z" transform="translate(-0.01 -0.11)"/><path d="M4.27,35.07a1.56,1.56,0,1,0,1.56-1.55A1.56,1.56,0,0,0,4.27,35.07Zm1.56-.56a.57.57,0,1,1-.57.56.56.56,0,0,1,.57-.56Z" transform="translate(-0.01 -0.11)"/><path d="M22.76,5.46V3.84a3.75,3.75,0,0,0-7.5,0V5.46a3.75,3.75,0,0,0,7.5,0Zm-6.51,0V3.84a2.76,2.76,0,0,1,5.52,0V5.46a2.76,2.76,0,0,1-5.52,0Z" transform="translate(-0.01 -0.11)"/><path d="M13,19.38H25.05a.49.49,0,0,0,.49-.49h0V17.75h8.27a.5.5,0,0,0,.5-.49V14.05a3.71,3.71,0,0,0-3.47-3.69.59.59,0,0,0-.51.28,2.26,2.26,0,0,1-3.19.32,2.4,2.4,0,0,1-.38-.4.48.48,0,0,0-.41-.2,3.57,3.57,0,0,0-1.82.53,4.15,4.15,0,0,0-2.89-1.44.6.6,0,0,0-.51.3,2.66,2.66,0,0,1-3.74.37,2.62,2.62,0,0,1-.46-.48.48.48,0,0,0-.41-.2,4.16,4.16,0,0,0-2.86,1.25l-.18.2a3.73,3.73,0,0,0-1.68-.53.58.58,0,0,0-.51.28A2.26,2.26,0,0,1,8.1,11a2.11,2.11,0,0,1-.39-.4.47.47,0,0,0-.41-.2,3.7,3.7,0,0,0-3.6,3.69v3.21a.49.49,0,0,0,.49.49h8.29v1.14A.49.49,0,0,0,13,19.38Zm13.17-8a3.25,3.25,0,0,0,4.59.29,3.7,3.7,0,0,0,.28-.28,2.71,2.71,0,0,1,2.31,2.68v2.71H25.54V13.6a4.11,4.11,0,0,0-.45-1.89,2.61,2.61,0,0,1,1.05-.35Zm-9.83-.91a3.64,3.64,0,0,0,5.14.37,3.15,3.15,0,0,0,.37-.36,3.19,3.19,0,0,1,2.74,3.14v4.79H13.46V13.6A3.19,3.19,0,0,1,16.31,10.45ZM4.69,16.76V14.05a2.72,2.72,0,0,1,2.4-2.69,3.25,3.25,0,0,0,4.59.29,2.47,2.47,0,0,0,.28-.28,2.81,2.81,0,0,1,1,.34,4,4,0,0,0-.45,1.89v3.16Z" transform="translate(-0.01 -0.11)"/><path d="M31.87,6.93V5.51a3.35,3.35,0,0,0-6.69,0V6.93a3.35,3.35,0,1,0,6.69,0Zm-5.7,0V5.51a2.36,2.36,0,0,1,4.71,0h0V6.93a2.36,2.36,0,0,1-4.71,0Z" transform="translate(-0.01 -0.11)"/><path d="M12.82,6.93V5.51a3.34,3.34,0,1,0-6.68,0V6.93a3.34,3.34,0,1,0,6.68,0Zm-5.69,0V5.51a2.35,2.35,0,0,1,4.7,0h0V6.93a2.35,2.35,0,1,1-4.7,0Z" transform="translate(-0.01 -0.11)"/></svg>