<svg id="Layer_1" data-name="Layer 1" xmlns="http://www.w3.org/2000/svg" viewBox="0 0 13.76 13.69"><defs><style>.cls-1{fill:#fff;}</style></defs><title>kickill-edit-icons</title><path class="cls-1" d="M13.32,9.25a.34.34,0,0,0-.34.34v3a1,1,0,0,1-1,1H2.33a1,1,0,0,1-1-1V3.7a1,1,0,0,1,1-1H5.38a.34.34,0,1,0,0-.68h-3A1.72,1.72,0,0,0,.62,3.7v8.93a1.71,1.71,0,0,0,1.71,1.71H12a1.71,1.71,0,0,0,1.71-1.71v-3A.34.34,0,0,0,13.32,9.25Z" transform="translate(-0.62 -0.66)"/><path class="cls-1" d="M13.53,1.11a1.53,1.53,0,0,0-2.18,0L5.23,7.22a.38.38,0,0,0-.09.15l-.8,2.9a.36.36,0,0,0,.09.34.36.36,0,0,0,.33.09l2.9-.81a.29.29,0,0,0,.16-.09l6.11-6.11a1.55,1.55,0,0,0,0-2.18ZM6,7.44l5-5L12.6,4.05l-5,5Zm-.32.65L7,9.38l-1.79.49Zm7.78-4.88-.36.36L11.47,2l.36-.36a.86.86,0,0,1,1.21,0l.4.4A.86.86,0,0,1,13.44,3.21Z" transform="translate(-0.62 -0.66)"/></svg>