<svg id="Layer_1" data-name="Layer 1" xmlns="http://www.w3.org/2000/svg" viewBox="0 0 15.89 16.95"><defs><style>.cls-1{fill:#fff;}</style></defs><title>kickill-trash</title><path class="cls-1" d="M12.67,7H6.58l5.74-3.31A.51.51,0,0,0,12.5,3l-1-1.72a.48.48,0,0,0-.67-.18l-3,1.74L7.07,1.51a.49.49,0,0,0-.68-.18L3,3.31A.49.49,0,0,0,2.77,4l.75,1.29L.51,7a.51.51,0,0,0-.19.68l1,1.72A.49.49,0,0,0,2,9.6l.44-.25.81,8.14a.49.49,0,0,0,.49.45h8a.49.49,0,0,0,.49-.45l1-10A.5.5,0,0,0,12.67,7Zm-8.79-3L6.46,2.43l.5.86L4.38,4.78ZM1.93,8.49l-.5-.86,9.46-5.46.5.86Zm2.93-.55h7.26l-.69,7h-1L11,9.48a.5.5,0,1,0-1-.09l-.55,5.54H8.2V9.43a.5.5,0,0,0-1,0v5.5H6L5.43,9.39a.5.5,0,1,0-1,.09L5,14.93H4L3.37,8.8Zm-.68,9-.1-1h7.25l-.1,1Z" transform="translate(-0.26 -0.99)"/><path class="cls-1" d="M15.65,4h-1a.5.5,0,0,0-.5.5.5.5,0,0,0,.5.5h1a.51.51,0,0,0,.5-.5A.5.5,0,0,0,15.65,4Z" transform="translate(-0.26 -0.99)"/><path class="cls-1" d="M14,6.1a.5.5,0,0,0-.7,0,.51.51,0,0,0,0,.71l1,1a.49.49,0,0,0,.7-.7Z" transform="translate(-0.26 -0.99)"/><path class="cls-1" d="M14,2.83l1-1a.5.5,0,0,0,0-.7.48.48,0,0,0-.7,0l-1,1a.5.5,0,0,0,0,.7A.48.48,0,0,0,14,2.83Z" transform="translate(-0.26 -0.99)"/></svg>