<?xml version="1.0" encoding="utf-8"?>
<!-- Generator: Adobe Illustrator 23.0.1, SVG Export Plug-In . SVG Version: 6.00 Build 0)  -->
<svg version="1.1" id="Layer_1" xmlns="http://www.w3.org/2000/svg" xmlns:xlink="http://www.w3.org/1999/xlink" x="0px" y="0px"
	 viewBox="0 0 30 30" style="enable-background:new 0 0 30 30;" xml:space="preserve">
<style type="text/css">
	.st0{display:none;}
	.st1{display:inline;fill:#FFFFFF;}
	.st2{display:inline;}
	.st3{fill:#FFFFFF;}
	.st4{display:none;fill:#FFFFFF;}
</style>
<g class="st0">
	<path class="st1" d="M11.93,1.08c-5.99,0-10.85,4.86-10.85,10.85s4.86,10.85,10.85,10.85c2.3,0,4.44-0.72,6.2-1.94l0,0l8.05,8.05
		c0.15,0.15,0.39,0.15,0.54,0l2.17-2.17c0.15-0.15,0.14-0.4,0-0.54l-8.05-8.05c1.22-1.76,1.94-3.9,1.94-6.2
		C22.79,5.94,17.93,1.08,11.93,1.08z M11.93,20.23c-4.58,0-8.3-3.72-8.3-8.3s3.72-8.3,8.3-8.3s8.3,3.72,8.3,8.3
		S16.52,20.23,11.93,20.23z"/>
</g>
<g class="st0">
	<g class="st2">
		<path class="st3" d="M14.91,1c-5.35,0-9.7,4.35-9.7,9.7c0,1.81,0.5,3.57,1.45,5.1l7.7,12.41c0.15,0.24,0.41,0.38,0.69,0.38
			c0,0,0,0,0.01,0c0.28,0,0.54-0.15,0.69-0.39l7.5-12.53c0.9-1.5,1.37-3.22,1.37-4.97C24.61,5.35,20.26,1,14.91,1z M21.85,14.84
			l-6.82,11.39l-7-11.28c-0.79-1.27-1.22-2.74-1.22-4.25c0-4.46,3.64-8.09,8.09-8.09S23,6.24,23,10.7
			C23,12.16,22.6,13.6,21.85,14.84z"/>
	</g>
</g>
<g class="st0">
	<g class="st2">
		<path class="st3" d="M14.91,5.85c-2.67,0-4.85,2.18-4.85,4.85c0,2.66,2.14,4.85,4.85,4.85c2.74,0,4.85-2.22,4.85-4.85
			C19.76,8.03,17.58,5.85,14.91,5.85z M14.91,13.95c-1.79,0-3.24-1.46-3.24-3.24s1.46-3.24,3.24-3.24s3.24,1.46,3.24,3.24
			C18.15,12.46,16.73,13.95,14.91,13.95z"/>
	</g>
</g>
<g class="st0">
	<g class="st2">
		<path class="st3" d="M26.67,13.72l-0.69-2.76c0.19-0.04,0.33-0.21,0.33-0.41v-0.44c0-0.97-0.79-1.75-1.75-1.75h-3.14V7.44
			c0-0.47-0.39-0.86-0.86-0.86h-16c-0.47,0-0.86,0.39-0.86,0.86V15c0,0.23,0.19,0.42,0.42,0.42c0.23,0,0.42-0.19,0.42-0.42V7.44
			c0-0.02,0.01-0.03,0.03-0.03h16c0.02,0,0.03,0.01,0.03,0.03V15c0,0.23,0.19,0.42,0.42,0.42c0.23,0,0.42-0.19,0.42-0.42v-0.47h4.92
			c0,0,0,0,0,0c0,0,0,0,0,0c0.6,0,1.12,0.4,1.3,0.94h-1.3c-0.23,0-0.42,0.19-0.42,0.42v0.89c0,0.72,0.59,1.31,1.31,1.31h0.47v1.83
			h-1.09c-0.36-1.03-1.34-1.78-2.49-1.78c-1.15,0-2.14,0.74-2.49,1.78h-0.2v-3.14c0-0.23-0.19-0.42-0.42-0.42
			c-0.23,0-0.42,0.19-0.42,0.42v3.14h-8.65c-0.36-1.03-1.34-1.78-2.49-1.78s-2.14,0.74-2.49,1.78h-2.4c-0.02,0-0.03-0.01-0.03-0.03
			v-0.92h1.81c0.23,0,0.42-0.19,0.42-0.42c0-0.23-0.19-0.42-0.42-0.42h-4c-0.23,0-0.42,0.19-0.42,0.42c0,0.23,0.19,0.42,0.42,0.42
			h1.36v0.92c0,0.47,0.39,0.86,0.86,0.86H6.8c0,0.01,0,0.02,0,0.03c0,1.46,1.18,2.64,2.64,2.64s2.64-1.18,2.64-2.64
			c0-0.01,0-0.02,0-0.03h9.39c0,0.01,0,0.02,0,0.03c0,1.46,1.18,2.64,2.64,2.64c1.46,0,2.64-1.18,2.64-2.64c0-0.01,0-0.02,0-0.03
			h1.36c0.23,0,0.42-0.19,0.42-0.42v-4.45C28.53,14.79,27.72,13.88,26.67,13.72z M21.42,9.19h3.14c0.51,0,0.92,0.41,0.92,0.92v0.03
			h-4.06V9.19z M21.42,13.69v-2.72h3.7l0.68,2.72H21.42L21.42,13.69z M9.44,22.59c-1,0-1.81-0.81-1.81-1.81s0.81-1.81,1.81-1.81
			s1.81,0.81,1.81,1.81S10.44,22.59,9.44,22.59z M24.11,22.59c-1,0-1.81-0.81-1.81-1.81s0.81-1.81,1.81-1.81s1.81,0.81,1.81,1.81
			S25.11,22.59,24.11,22.59z M27.7,17.25h-0.47c-0.26,0-0.47-0.21-0.47-0.47v-0.47h0.94L27.7,17.25L27.7,17.25z"/>
	</g>
</g>
<g class="st0">
	<g class="st2">
		<path class="st3" d="M9.44,19.92c-0.47,0-0.86,0.39-0.86,0.86s0.39,0.86,0.86,0.86s0.86-0.39,0.86-0.86
			C10.3,20.3,9.92,19.92,9.44,19.92z"/>
	</g>
</g>
<g class="st0">
	<g class="st2">
		<path class="st3" d="M24.11,19.92c-0.47,0-0.86,0.39-0.86,0.86s0.39,0.86,0.86,0.86c0.47,0,0.86-0.39,0.86-0.86
			S24.59,19.92,24.11,19.92z"/>
	</g>
</g>
<g class="st0">
	<g class="st2">
		<path class="st3" d="M19.22,18.14H13c-0.23,0-0.42,0.19-0.42,0.42s0.19,0.42,0.42,0.42h6.22c0.23,0,0.42-0.19,0.42-0.42
			S19.45,18.14,19.22,18.14z"/>
	</g>
</g>
<g class="st0">
	<g class="st2">
		<path class="st3" d="M8.55,16.36H3.22c-0.23,0-0.42,0.19-0.42,0.42s0.19,0.42,0.42,0.42h5.33c0.23,0,0.42-0.19,0.42-0.42
			S8.78,16.36,8.55,16.36z"/>
	</g>
</g>
<g class="st0">
	<g class="st2">
		<path class="st3" d="M16.41,10.7c-0.16-0.16-0.43-0.16-0.59,0l-3.71,3.71l-1.93-1.93c-0.16-0.16-0.43-0.16-0.59,0
			c-0.16,0.16-0.16,0.43,0,0.59l2.22,2.22c0.08,0.08,0.19,0.12,0.29,0.12c0.11,0,0.21-0.04,0.29-0.12l4-4
			C16.57,11.13,16.57,10.87,16.41,10.7z"/>
	</g>
</g>
<path class="st4" d="M23.27,18.8c-1.41-1.41-3.09-2.46-4.93-3.09c1.96-1.35,3.25-3.62,3.25-6.18c0-4.13-3.36-7.5-7.5-7.5
	S6.6,5.4,6.6,9.53c0,2.56,1.29,4.82,3.25,6.18c-1.83,0.63-3.52,1.68-4.93,3.09c-2.45,2.45-3.8,5.71-3.8,9.17h2.03
	c0-6.03,4.91-10.94,10.94-10.94s10.94,4.91,10.94,10.94h2.03C27.06,24.5,25.71,21.25,23.27,18.8z M8.63,9.53
	c0-3.02,2.45-5.47,5.47-5.47s5.47,2.45,5.47,5.47S17.11,15,14.1,15S8.63,12.55,8.63,9.53z"/>
<g>
	<g>
		<path class="st3" d="M2.24,4.79h2.85l4.05,14.66c0.12,0.43,0.51,0.73,0.96,0.73h12.46c0.4,0,0.74-0.23,0.91-0.6L28,9.16
			c0.13-0.31,0.1-0.66-0.08-0.94c-0.18-0.28-0.5-0.45-0.83-0.45H13.33c-0.55,0-0.99,0.45-0.99,0.99c0,0.55,0.45,0.99,0.99,0.99
			h12.24l-3.67,8.44H10.85L6.79,3.53C6.68,3.1,6.28,2.8,5.83,2.8H2.24C1.7,2.8,1.25,3.25,1.25,3.8S1.7,4.79,2.24,4.79z"/>
		<path class="st3" d="M9.16,27.15c1.24,0,2.25-1.01,2.25-2.25c0-1.24-1.01-2.25-2.25-2.25s-2.25,1.01-2.25,2.25
			C6.91,26.14,7.92,27.15,9.16,27.15z"/>
		<path class="st3" d="M23.22,27.15c0.05,0,0.12,0,0.17,0c0.6-0.05,1.14-0.31,1.54-0.78c0.4-0.45,0.58-1.03,0.55-1.64
			c-0.08-1.22-1.16-2.17-2.4-2.08c-1.24,0.08-2.17,1.17-2.08,2.4C21.07,26.23,22.04,27.15,23.22,27.15z"/>
	</g>
</g>
</svg>
