<svg id="Layer_1" data-name="Layer 1" xmlns="http://www.w3.org/2000/svg" viewBox="0 0 13.76 13.69"><defs><style>.cls-1{fill:#8d8989;}</style></defs><title>kickill-edit-icons-grey</title><path class="cls-1" d="M12.7,8.59a.34.34,0,0,0-.34.34h0v3a1,1,0,0,1-1,1H1.71a1,1,0,0,1-1-1V3a1,1,0,0,1,1-1H4.76a.34.34,0,0,0,0-.68h-3A1.72,1.72,0,0,0,0,3H0V12a1.72,1.72,0,0,0,1.71,1.71h9.67A1.72,1.72,0,0,0,13.09,12V9a.34.34,0,0,0-.29-.38Z" transform="translate(0 0.01)"/><path class="cls-1" d="M12.91.45a1.53,1.53,0,0,0-2.16,0l0,0L4.61,6.56a.38.38,0,0,0-.09.15l-.8,2.9a.36.36,0,0,0,.09.34.36.36,0,0,0,.33.09L7,9.23a.26.26,0,0,0,.16-.09L13.31,3a1.55,1.55,0,0,0,0-2.18ZM5.38,6.78l5-5L12,3.39l-5,5Zm-.32.65L6.38,8.72l-1.79.49Zm7.78-4.88-.36.36L10.85,1.34,11.21,1a.86.86,0,0,1,1.21,0l.4.4a.85.85,0,0,1,0,1.17Z" transform="translate(0 0.01)"/></svg>