<svg id="Layer_1" data-name="Layer 1" xmlns="http://www.w3.org/2000/svg" viewBox="0 0 34.24 34.24"><title>kickill-about-team-icon</title><path d="M34.62,14.74H33.38l-1.85,1a3.16,3.16,0,0,0-.66-.27l-2.33-.58v-.27a3.86,3.86,0,0,0,1.66-3.16v-1a4,4,0,0,0-3.75-4h-.31l.61-1.41L23.82,2.13,22.1,3.25A9.34,9.34,0,0,0,20,2.39l-.43-2H15.4l-.43,2a9.34,9.34,0,0,0-2.07.86L11.18,2.13,8.26,5.05l.59,1.41H8.78a3.86,3.86,0,0,0-4,3.86v1.11a3.86,3.86,0,0,0,1.66,3.16v.27l-1.52.38L2.19,13.63H.38V25.08l5.43,1.81H6.87L7,26.43l1.67,1a1.72,1.72,0,0,0,1.66,1.67A1.71,1.71,0,0,0,12,30.75a1.72,1.72,0,0,0,1.66,1.65,1.72,1.72,0,0,0,1.72,1.67,1.79,1.79,0,0,0,1-.3l.49.43a1.67,1.67,0,0,0,1.11.42H18A1.68,1.68,0,0,0,19.71,33a1.67,1.67,0,0,0,1.65-1.66A1.68,1.68,0,0,0,23,29.65,1.71,1.71,0,0,0,24.68,28a.86.86,0,0,0,0-.16l9.95-5ZM29.1,10.46v1a2.74,2.74,0,0,1-1.39,2.38l-.27.16v1.75l2.76.69-6.07,3.2V18.12a2.74,2.74,0,0,0-.79-1.92l1.89-.48V14L25,13.81a2.74,2.74,0,0,1-1.39-2.38V10.32a2.74,2.74,0,0,1,.84-2,2.7,2.7,0,0,1,2-.78A2.86,2.86,0,0,1,29.1,10.46ZM18.33,19.17l-2.5-.8a7,7,0,0,0-3.54-.16l-.31.07v-.16a1.66,1.66,0,0,1,1.25-1.61l3.17-.79V14l-.28-.16a2.76,2.76,0,0,1-1.38-2.38V10.32a2.74,2.74,0,0,1,.84-2,2.7,2.7,0,0,1,2-.78,2.86,2.86,0,0,1,2.67,2.9v1a2.76,2.76,0,0,1-1.38,2.38L18.6,14v1.75l3.16.79A1.66,1.66,0,0,1,23,18.12v2.07l-.13.07h-.34l-3.4-1A3.78,3.78,0,0,0,18.33,19.17ZM12.1,8.65A6.07,6.07,0,0,1,22.88,8.6a3.76,3.76,0,0,0-.41,1.72v1.11a3.86,3.86,0,0,0,1.66,3.16v.27l-2.21.55-2.21-.55v-.27a3.86,3.86,0,0,0,1.66-3.16v-1a4,4,0,0,0-3.75-4,3.88,3.88,0,0,0-4,3.86v1.11a3.86,3.86,0,0,0,1.66,3.16v.27l-2.21.55-2.21-.55v-.27a3.86,3.86,0,0,0,1.66-3.16v-1A4.06,4.06,0,0,0,12.1,8.65ZM9.56,5.31l1.77-1.77,1.55,1,.3-.18a8.06,8.06,0,0,1,2.39-1l.34-.08.38-1.81h2.42l.38,1.81.34.08a8.06,8.06,0,0,1,2.39,1l.3.18,1.55-1L25.44,5.3l-.63,1.47a3.75,3.75,0,0,0-1.17.78l-.06.06a7.18,7.18,0,0,0-12.18,0,3.89,3.89,0,0,0-1.22-.87Zm-2,10.41V14l-.28-.16A2.76,2.76,0,0,1,5.9,11.43V10.32a2.74,2.74,0,0,1,.84-2,2.7,2.7,0,0,1,2-.78,2.87,2.87,0,0,1,2.68,2.9v1A2.74,2.74,0,0,1,10,13.81L9.77,14v1.75l1.89.48a2.74,2.74,0,0,0-.79,1.92v.41l-1.72.38,0-.15,0-1L6.3,16Zm-6.07-1h.4l4,2.32-2,8-2.37-.79Zm4.5,11-1.08-.36,1.94-7.79,1.26.74v.16L6,25.78Zm3.78,1.59a.58.58,0,0,1,.18-.43l1-1a.67.67,0,0,1,.44-.18.62.62,0,0,1,.44,1.06l-1,1a.62.62,0,0,1-1.06-.44ZM11.43,29a.62.62,0,0,1,.18-.44l1-1a.63.63,0,0,1,.44-.18.62.62,0,0,1,.43,1.06l-1,1a.63.63,0,0,1-.44.18A.61.61,0,0,1,11.43,29Zm1.65,1.66a.63.63,0,0,1,.18-.44l1-1a.62.62,0,0,1,1.06.44.58.58,0,0,1-.18.43l-1,1a.63.63,0,0,1-.44.19A.62.62,0,0,1,13.08,30.69ZM15.36,33a.62.62,0,0,1-.62-.62.58.58,0,0,1,.18-.43l1-1a.67.67,0,0,1,.44-.18.62.62,0,0,1,.44,1.06l-1,1A.62.62,0,0,1,15.36,33Zm2.67.55h-.1a.57.57,0,0,1-.38-.14L17.13,33l.42-.42a1.78,1.78,0,0,0,.35-.51l.5.42a.57.57,0,0,1,.2.44A.56.56,0,0,1,18,33.51Zm4.95-5h-.09a.57.57,0,0,1-.38-.13l-3-2.5-.71.85,2.91,2.42a.59.59,0,0,1,.21.45.58.58,0,0,1-.58.57h-.12a.64.64,0,0,1-.37-.13l-3-2.5-.7.85,2.9,2.42a.55.55,0,0,1,.21.44.58.58,0,0,1-.57.58,1,1,0,0,1-.59-.21l-1.23-1a1.71,1.71,0,0,0-1.48-1A1.72,1.72,0,0,0,14.73,28a1.71,1.71,0,0,0-1.65-1.66,1.73,1.73,0,0,0-2.94-1.16l-1,1c-.06.06-.11.13-.16.19l-1.69-1L8.8,20.12l3.73-.83a5.66,5.66,0,0,1,3,.14l.81.26-2.76,1.38a1.82,1.82,0,0,0-1,1.65v.11a1.85,1.85,0,0,0,2.8,1.59l2.06-1.24a1.13,1.13,0,0,1,1.32.13l4.67,4.2a.6.6,0,0,1,.19.44A.58.58,0,0,1,23,28.54Zm10.53-6.41-9.3,4.65-.09-.09-4.67-4.2a2.21,2.21,0,0,0-2.63-.25l-2.06,1.23a.72.72,0,0,1-.38.1.75.75,0,0,1-.75-.74v-.11a.75.75,0,0,1,.42-.67l3.08-1.54a2.43,2.43,0,0,1,1.72-.16l3.47,1,.84,0,10.35-5.45Z" transform="translate(-0.38 -0.38)"/></svg>