<?xml version="1.0" encoding="utf-8"?>
<!-- Generator: Adobe Illustrator 23.0.1, SVG Export Plug-In . SVG Version: 6.00 Build 0)  -->
<svg version="1.1" id="Layer_1" xmlns="http://www.w3.org/2000/svg" xmlns:xlink="http://www.w3.org/1999/xlink" x="0px" y="0px"
	 viewBox="0 0 30 30" style="enable-background:new 0 0 30 30;" xml:space="preserve">
<style type="text/css">
	.st0{display:none;}
	.st1{display:inline;fill:#FFFFFF;}
	.st2{fill:#FFFFFF;}
</style>
<g class="st0">
	<path class="st1" d="M11.93,1.08c-5.99,0-10.85,4.86-10.85,10.85s4.86,10.85,10.85,10.85c2.3,0,4.44-0.72,6.2-1.94l0,0l8.05,8.05
		c0.15,0.15,0.39,0.15,0.54,0l2.17-2.17c0.15-0.15,0.14-0.4,0-0.54l-8.05-8.05c1.22-1.76,1.94-3.9,1.94-6.2
		C22.79,5.94,17.93,1.08,11.93,1.08z M11.93,20.23c-4.58,0-8.3-3.72-8.3-8.3s3.72-8.3,8.3-8.3s8.3,3.72,8.3,8.3
		S16.52,20.23,11.93,20.23z"/>
</g>
<g>
	<g>
		<path class="st2" d="M14.91,1c-5.35,0-9.7,4.35-9.7,9.7c0,1.81,0.5,3.57,1.45,5.1l7.7,12.41c0.15,0.24,0.41,0.38,0.69,0.38
			c0,0,0,0,0.01,0c0.28,0,0.54-0.15,0.69-0.39l7.5-12.53c0.9-1.5,1.37-3.22,1.37-4.97C24.61,5.35,20.26,1,14.91,1z M21.85,14.84
			l-6.82,11.39l-7-11.28c-0.79-1.27-1.22-2.74-1.22-4.25c0-4.46,3.64-8.09,8.09-8.09S23,6.24,23,10.7
			C23,12.16,22.6,13.6,21.85,14.84z"/>
	</g>
</g>
<g>
	<g>
		<path class="st2" d="M14.91,5.85c-2.67,0-4.85,2.18-4.85,4.85c0,2.66,2.14,4.85,4.85,4.85c2.74,0,4.85-2.22,4.85-4.85
			C19.76,8.03,17.58,5.85,14.91,5.85z M14.91,13.95c-1.79,0-3.24-1.46-3.24-3.24c0-1.78,1.46-3.24,3.24-3.24
			c1.78,0,3.24,1.46,3.24,3.24C18.15,12.46,16.73,13.95,14.91,13.95z"/>
	</g>
</g>
</svg>
