<svg id="Layer_1" data-name="Layer 1" xmlns="http://www.w3.org/2000/svg" viewBox="0 0 32.1 28.61"><defs><style>.cls-1{fill:#010101;}</style></defs><title>kickill-head-cart</title><path class="cls-1" d="M13.91,23.89a2.72,2.72,0,1,0,2.82,2.72A2.77,2.77,0,0,0,13.91,23.89Zm0,3.92a1.2,1.2,0,1,1,1.25-1.2A1.23,1.23,0,0,1,13.91,27.81Z" transform="translate(-0.45 -0.71)"/><path class="cls-1" d="M23.81,23.89a2.72,2.72,0,1,0,2.82,2.72A2.77,2.77,0,0,0,23.81,23.89Zm0,3.92a1.2,1.2,0,1,1,1.25-1.2A1.23,1.23,0,0,1,23.81,27.81Z" transform="translate(-0.45 -0.71)"/><path class="cls-1" d="M24.51,9.57H13.21a.76.76,0,1,0,0,1.52h11.3a.76.76,0,1,0,0-1.52Z" transform="translate(-0.45 -0.71)"/><path class="cls-1" d="M23.89,13.51H13.83a.76.76,0,1,0,0,1.52H23.89a.76.76,0,1,0,0-1.52Z" transform="translate(-0.45 -0.71)"/><path class="cls-1" d="M32.19,6.19A1.57,1.57,0,0,0,31,5.63H6.42L5.93,3.31A1.55,1.55,0,0,0,5,2.22L1.55.78a.79.79,0,0,0-1,.39.74.74,0,0,0,.41,1L4.39,3.62,8.2,21.45a1.57,1.57,0,0,0,1.54,1.21H28.62a.76.76,0,1,0,0-1.52H9.74L9.28,19H28.77a1.57,1.57,0,0,0,1.54-1.21L32.52,7.45A1.48,1.48,0,0,0,32.19,6.19ZM28.77,17.46H9L6.75,7.15H31Z" transform="translate(-0.45 -0.71)"/></svg>