<svg id="Layer_1" data-name="Layer 1" xmlns="http://www.w3.org/2000/svg" viewBox="0 0 13.7 15.25"><defs><style>.cls-1{fill:#fff;}</style></defs><title>kickill-reload</title><path class="cls-1" d="M1.32,5.89a.48.48,0,0,0-.63.24c-.1.25-.2.49-.3.79a.53.53,0,0,0,.35.58H.88a.47.47,0,0,0,.44-.29,2.74,2.74,0,0,1,.25-.68A.48.48,0,0,0,1.32,5.89Z" transform="translate(-0.15 -0.37)"/><path class="cls-1" d="M1.32,10.2A5.47,5.47,0,0,1,1.13,9a.58.58,0,0,0-.54-.44.54.54,0,0,0-.44.54,6.48,6.48,0,0,0,.2,1.42.58.58,0,0,0,.49.34s.09,0,.14-.1A.49.49,0,0,0,1.32,10.2Z" transform="translate(-0.15 -0.37)"/><path class="cls-1" d="M3.43,13.42A5.63,5.63,0,0,1,2.06,12a.48.48,0,0,0-.69-.15.48.48,0,0,0-.14.68,7.71,7.71,0,0,0,1.61,1.72.72.72,0,0,0,.29.1.45.45,0,0,0,.4-.2A.55.55,0,0,0,3.43,13.42Z" transform="translate(-0.15 -0.37)"/><path class="cls-1" d="M9.4,14.7a.5.5,0,0,0-.64-.35,5.87,5.87,0,0,1-3.47,0,.57.57,0,0,0-.64.35.56.56,0,0,0,.34.63,6.75,6.75,0,0,0,2,.3,7.27,7.27,0,0,0,2.05-.3A.47.47,0,0,0,9.4,14.7Z" transform="translate(-0.15 -0.37)"/><path class="cls-1" d="M13.36,6.18A6.9,6.9,0,0,0,9.69,2.42a6.8,6.8,0,0,0-3.57-.49.49.49,0,0,0-.44.54.49.49,0,0,0,.54.44,5.9,5.9,0,0,1,6.21,3.66,5.74,5.74,0,0,1,0,4.51,5.84,5.84,0,0,1-1.76,2.3.48.48,0,0,0-.1.68.45.45,0,0,0,.39.2.42.42,0,0,0,.35-.15,6.68,6.68,0,0,0,2.05-2.69A6.89,6.89,0,0,0,13.36,6.18Z" transform="translate(-0.15 -0.37)"/><path class="cls-1" d="M8.17.56a.51.51,0,0,0-.68-.1L5.68,1.83a.47.47,0,0,0-.1.68L7,4.37a.44.44,0,0,0,.39.2.37.37,0,0,0,.25-.05.47.47,0,0,0,.09-.68L6.61,2.37,8.08,1.24A.47.47,0,0,0,8.17.56Z" transform="translate(-0.15 -0.37)"/></svg>