<svg id="Capa_1" data-name="Capa 1" xmlns="http://www.w3.org/2000/svg" viewBox="0 0 28 28"><defs><style>.cls-1{fill:#fff;}</style></defs><title>kickil-paper-plane</title><path class="cls-1" d="M29.22.07a.52.52,0,0,0-.54,0L18.65,6a.55.55,0,0,0-.19.75.54.54,0,0,0,.75.19L26.4,2.69,13,16.59l-6.66-2L15,9.41a.55.55,0,1,0-.56-.94L4.72,14.24a.55.55,0,0,0-.26.54.52.52,0,0,0,.38.45l8,2.44,3.51,6.39h0a.56.56,0,0,0,.25.23.52.52,0,0,0,.21,0,.54.54,0,0,0,.39-.16l4-3.94,7.59,2.32.16,0a.57.57,0,0,0,.33-.11A.54.54,0,0,0,29.5,22V.55A.56.56,0,0,0,29.22.07ZM16.33,18a.59.59,0,0,0-.09.32v3.34l-2.4-4.36,10.61-11Zm1,4.49V19.06l2.68.81ZM28.41,21.3,17.66,18,28.41,2.5Z" transform="translate(-1.5 0)"/><path class="cls-1" d="M10.49,19a.53.53,0,0,0-.77,0l-5.11,5.1a.56.56,0,0,0,0,.78.56.56,0,0,0,.78,0l5.1-5.11A.53.53,0,0,0,10.49,19Z" transform="translate(-1.5 0)"/><path class="cls-1" d="M3.69,25.81a.55.55,0,0,0-.77,0L1.66,27.07a.55.55,0,0,0,.39.93.51.51,0,0,0,.38-.16l1.26-1.26A.55.55,0,0,0,3.69,25.81Z" transform="translate(-1.5 0)"/><path class="cls-1" d="M9.3,27a.55.55,0,0,0-.39-.16.55.55,0,0,0-.38.16.59.59,0,0,0-.16.39.57.57,0,0,0,.16.39.55.55,0,0,0,.38.16.55.55,0,0,0,.39-.16.57.57,0,0,0,.16-.39A.59.59,0,0,0,9.3,27Z" transform="translate(-1.5 0)"/><path class="cls-1" d="M13.37,23a.53.53,0,0,0-.77,0l-2.71,2.7a.55.55,0,0,0,.78.77l2.7-2.7A.55.55,0,0,0,13.37,23Z" transform="translate(-1.5 0)"/><path class="cls-1" d="M22.7,22.76a.53.53,0,0,0-.77,0l-2.71,2.71a.53.53,0,0,0,0,.77.51.51,0,0,0,.38.16.54.54,0,0,0,.39-.16l2.71-2.71A.53.53,0,0,0,22.7,22.76Z" transform="translate(-1.5 0)"/><path class="cls-1" d="M17,7.45a.55.55,0,0,0-.38-.16.55.55,0,0,0-.39.16.59.59,0,0,0-.16.39.55.55,0,0,0,.55.55A.55.55,0,0,0,17,8.23a.51.51,0,0,0,.16-.39A.54.54,0,0,0,17,7.45Z" transform="translate(-1.5 0)"/></svg>